<svg xmlns="http://www.w3.org/2000/svg" viewBox="0 0 200 56" role="img" aria-label="Vakratunda Properties">
  <defs>
    <linearGradient id="vak" x1="0%" y1="0%" x2="100%" y2="100%">
      <stop offset="0%" stop-color="#f59e0b"/>
      <stop offset="100%" stop-color="#d97706"/>
    </linearGradient>
  </defs>
  <rect x="4" y="14" width="28" height="28" rx="7" fill="url(#vak)"/>
  <path d="M18 18 C13 18 11 22 11 26 C11 30 13 34 18 34 C23 34 25 30 25 26 L23 26 C23 29 22 31 18 31 C14 31 13 29 13 26 C13 23 14 21 18 21 C20 21 21 22 22 23 L24 21 C23 19 21 18 18 18 Z" fill="white"/>
  <text x="42" y="34" font-family="Inter, system-ui, sans-serif" font-size="16" font-weight="700" fill="currentColor" letter-spacing="-0.3">Vakratunda</text>
</svg>
